<?xml version="1.0" encoding="UTF-8"?><svg id="a" xmlns="http://www.w3.org/2000/svg" viewBox="0 0 64 64"><defs><style>.b{fill:none;stroke:#132555;stroke-linecap:round;stroke-linejoin:round;stroke-width:1.5px;}</style></defs><line class="b" x1="5" y1="59" x2="59" y2="59"/><path class="b" d="M36.9,34.72c0,6.43-4.86,11.64-10.87,11.64s-10.87-5.21-10.87-11.64S20.03,5,26.03,5s10.87,23.29,10.87,29.72Z"/><path class="b" d="M37.02,48.06c2.36,0,4.49-.95,6.05-2.47,1.69,1.53,3.93,2.47,6.39,2.47,5.27,0,9.53-4.27,9.53-9.53s-4.27-9.53-9.53-9.53h0c-.1-4.21-3.54-7.59-7.77-7.59"/><line class="b" x1="43.07" y1="59" x2="43.07" y2="33.73"/><line class="b" x1="26.03" y1="59" x2="26.03" y2="26.12"/><polyline class="b" points="29.72 28.35 26.05 32.01 22.39 28.35"/><polyline class="b" points="30.07 33.67 26.05 37.69 22.03 33.67"/><polyline class="b" points="29.72 39.7 26.05 43.36 22.39 39.7"/><path class="b" d="M18.96,15.46c-1.18-1.88-2.47-3.06-3.82-3.06-5.6,0-10.14,20.28-10.14,25.88s4.54,10.14,10.14,10.14c2.72,0,5.19-1.08,7-2.82"/><line class="b" x1="15.14" y1="59" x2="15.14" y2="28.32"/><polyline class="b" points="11.74 30.41 15.14 33.8 15.16 33.82 15.19 33.79"/><polyline class="b" points="11.41 35.37 15.14 39.1 15.16 39.12 15.76 38.52"/><polyline class="b" points="11.74 40.99 15.14 44.39 15.16 44.41 17.56 42.01"/><line class="b" x1="43.07" y1="41.79" x2="48.87" y2="38.73"/><line class="b" x1="43.07" y1="39.03" x2="40.69" y2="37.77"/><line class="b" x1="38.29" y1="21.9" x2="38.29" y2="21.9"/></svg>