<svg xmlns="http://www.w3.org/2000/svg" width="384" height="510.675" viewBox="0 0 384 510.675">
  <g id="Group_1" data-name="Group 1" transform="translate(-221 -71)">
    <path id="location-dot-solid" d="M168.3,499.2C116.1,435,0,279.4,0,192,0,85.96,85.96,0,192,0,298,0,384,85.96,384,192c0,87.4-117,243-168.3,307.2a30.212,30.212,0,0,1-47.4,0ZM192,256a64,64,0,1,0-64-64A64.059,64.059,0,0,0,192,256Z" transform="translate(221 71)" fill="orange"/>
    <circle id="Ellipse_1" data-name="Ellipse 1" cx="70" cy="70" r="70" transform="translate(345 193)"/>
  </g>
</svg>
