<svg enable-background="new 0 0 200 157.309" viewBox="0 0 200 157.309" xmlns="http://www.w3.org/2000/svg"><path d="m72.704 157.309h-72.704v-52.006c0-21.042 1.851-37.646 5.562-49.805 3.708-12.161 10.564-23.068 20.569-32.73 10.002-9.658 22.769-17.245 38.293-22.768l14.231 30.012c-14.489 4.831-24.883 11.559-31.178 20.181-6.299 8.627-9.617 20.097-9.96 34.412h35.188v72.704zm121.346 0h-72.704v-52.006c0-21.216 1.852-37.86 5.562-49.934 3.708-12.071 10.609-22.939 20.7-32.601 10.089-9.658 22.808-17.245 38.163-22.768l14.229 30.012c-14.488 4.831-24.883 11.559-31.176 20.181-6.299 8.627-9.619 20.097-9.962 34.412h35.188z" fill="#002169"/></svg>