<?xml version="1.0" encoding="UTF-8"?><svg id="a" xmlns="http://www.w3.org/2000/svg" viewBox="0 0 64 64"><defs><style>.b{fill:none;stroke:#132555;stroke-linecap:round;stroke-linejoin:round;stroke-width:1.5px;}</style></defs><line class="b" x1="5" y1="59" x2="59" y2="59"/><path class="b" d="M19.64,59s3.32-4.05,12.55-4.05c7.16,0,10.8,4.05,10.8,4.05"/><g><path class="b" d="M33.99,19.39c1.94-1.66,5.32-5.75,5.68-14.36-10.83,5.95-9.69,16.49-9.69,16.49-.94,7.67-1.04,14.28-.75,19.71,.03,.49,.06,.97,.09,1.44,.37,5.4,1.12,9.54,1.77,12.3"/><path class="b" d="M28.93,42.77s1.83-15.44,19.2-21.27c-3.4,17.81-19.2,21.27-19.2,21.27Z"/><path class="b" d="M28.93,36.87s-12.64-4.68-13.06-20.12c10.15,4.1,12.97,17.68,12.97,17.68"/><path class="b" d="M29.22,48.01s-9.92-2.04-12.1-9.41c7.56,0,12.1,9.41,12.1,9.41Z"/><line class="b" x1="32.23" y1="20.67" x2="32.23" y2="20.67"/></g></svg>