<svg viewBox="0 0 140.83 34.99" xmlns="http://www.w3.org/2000/svg"><g fill="#00afd7"><path d="m27.53 14.25c0-2.83-2.21-4.57-5.28-4.57-5.51 0-8.86 4.82-8.86 9.45a9.51 9.51 0 0 0 .13 1.6 6.81 6.81 0 0 0 .41 1.4 5.56 5.56 0 0 0 .68 1.18 4.92 4.92 0 0 0 .94.94 5.1 5.1 0 0 0 1.19.7 6.8 6.8 0 0 0 1.46.43 9.76 9.76 0 0 0 2.35.16l1.1-.08a17.32 17.32 0 0 0 2-.32 11.72 11.72 0 0 0 1.72-.52v-.18-.07l.14-.69.49-2.54-.71.24a18.09 18.09 0 0 1 -2 .48h-.21a7.83 7.83 0 0 1 -3.57 0l-.17-.06a3.11 3.11 0 0 1 -.52-.25 3 3 0 0 1 -.44-.33 2.7 2.7 0 0 1 -.28-.31 3.34 3.34 0 0 1 -.49-1.55c6.16.15 9.92-1.25 9.92-5.11zm-5.84-1.25c1 0 1.64.53 1.64 1.27 0 1.43-1.74 1.9-5.25 1.87a3.84 3.84 0 0 1 3.61-3.14z"/><path d="m31.24 25.2 4.22-22.05h-.02l-4.71 1.29-3.97 20.76z"/><path d="m43 9.65c-5.41 0-9.08 4.35-9.08 9.61 0 3.79 2.58 6.31 6.44 6.31 5.25 0 9.07-4.08 9.07-9.64a6 6 0 0 0 -6.43-6.28zm-2 12.5c-1.58 0-2.45-1.18-2.45-3 0-2.36 1.27-6.12 3.85-6.12 1.77 0 2.39 1.49 2.39 2.89.03 2.62-1.37 6.23-3.79 6.23z"/><path d="m54.84 18.82a5.3 5.3 0 0 1 5.16-5.57 5.11 5.11 0 0 1 2 .36l.68-3.61a9.75 9.75 0 0 0 -2.61-.35 9.54 9.54 0 0 0 -9.92 9.64c0 3.92 2.64 6.22 6.4 6.22a11.72 11.72 0 0 0 3.24-.43l.7-3.64a7.43 7.43 0 0 1 -2.66.49 2.87 2.87 0 0 1 -2.99-3.11z"/><path d="m74.65 20.5a10.43 10.43 0 0 1 .25-1.93l1-5.16h2.84l.68-3.41h-2.84l.77-4.1-4.6 1.24-.56 2.86h-2l-.62 3.42h1.93l-1.15 6a13.16 13.16 0 0 0 -.34 2.83c0 1.93 1.27 3.3 4 3.3a9.46 9.46 0 0 0 2.46-.3l.66-3.46v-.1a7.14 7.14 0 0 1 -1.22.07c-.91.02-1.26-.51-1.26-1.26z"/><path d="m65.97 25.2 2.88-15.18h-4.47l-2.89 15.18z"/><path d="m67.58 3.4a2.53 2.53 0 0 0 -2.58 2.6 2.06 2.06 0 0 0 2.14 2.18h.07a2.48 2.48 0 0 0 2.64-2.52 2.12 2.12 0 0 0 -2.27-2.26z"/><path d="m6.93 25.2.79-1.42 13.23-23.78h-5.41l-9.88 18.66-1.24-8.45-.02-.18-4.4 1.2 2.34 13.97z"/><path d="m95.81 9.96h-5.07-.04l-4.64 8.7-1.24-8.45-.02-.19h-4.09-.51l.26 1.53 2.27 13.57-5.22 9.87h4.47l13.86-25.03z"/></g><path d="m123.38 5.79-1.44 7.55h-7.02l1.44-7.55h-4.15l-3.69 19.41h4.15l1.53-8.18h7.05l-1.52 8.18h4.15l3.68-19.41z" fill="#fff"/><path d="m101.67 9.33h7.31l.69-3.54h-10.56-.93l-.77 4.07-2.92 15.34h11.9l.69-3.54h-7.75l.89-4.72h6.89l.69-3.49h-6.94z" fill="#fff"/><path d="m135.81 13.82c-1.64-.92-2.82-1.61-2.82-2.76s1-2 2.94-2a7.6 7.6 0 0 1 3.6.84l1.3-3.46a9.61 9.61 0 0 0 -4.56-1c-4.23 0-7.63 2.39-7.63 6.31 0 2.5 2 4.06 4 5.16 1.79.95 2.63 1.63 2.63 2.76 0 1.5-1.47 2.25-3.06 2.25a8.51 8.51 0 0 1 -1.45-.12 10.76 10.76 0 0 1 -3.32-1.24c-.29-.16-.46-.27-.47-.28l-.79 3.78a10.56 10.56 0 0 0 5.57 1.43c4.29 0 7.85-2.22 7.85-6.54.04-2.3-1.43-3.89-3.79-5.13z" fill="#fff"/></svg>